<svg xmlns="http://www.w3.org/2000/svg" viewBox="0 0 40 40" fill="none">
  <!-- Curly braces -->
  <path d="M12 8C10.5 8 9 9.5 9 11v6c0 1.5-1.5 3-3 3 1.5 0 3 1.5 3 3v6c0 1.5 1.5 3 3 3" stroke="#5eead4" stroke-width="2.5" stroke-linecap="round" fill="none"/>
  <path d="M28 8c1.5 0 3 1.5 3 3v6c0 1.5 1.5 3 3 3-1.5 0-3 1.5-3 3v6c0 1.5-1.5 3-3 3" stroke="#5eead4" stroke-width="2.5" stroke-linecap="round" fill="none"/>
  <!-- Lightning bolt -->
  <path d="M22 10L16 21h5l-3 9 8-12h-5l3-8z" fill="#facc15" stroke="#facc15" stroke-width="0.5" stroke-linejoin="round"/>
</svg>
